<?xml version="1.0" standalone="no"?><svg xmlns="http://www.w3.org/2000/svg" width="273" height="97.2" version="1.0" viewBox="0 0 4094 1458" style="fill:#4820fc"><path d="M3320 1.1c-62.3 7.1-112 48.4-127.4 106-3.8 14.5-5 24.1-5 40.4.1 18 1.9 29.3 7.5 46 17 51.2 60.9 88.2 115.7 97.6 15.7 2.6 38.8 2.6 54.7-.1 30.4-5.2 56.5-18.4 78.6-39.7 17.1-16.6 29.6-36.2 36.8-57.8 14.8-44.7 7.4-95.1-19.6-132.7-7.7-10.7-21.8-24.8-32.9-32.7-10.3-7.3-29.3-16.8-40.9-20.4-21.4-6.7-45.8-9-67.5-6.6zM3688.5 34.5c-.5.2-2.2.6-3.7.9-4.1.9-9.5 6.1-11.3 10.9-1.4 3.8-1.5 46.9-1.2 483.2.3 519 0 482.6 5.2 524 12.3 96.5 45 181 94.3 244.4 56.2 72.1 133.6 116.6 223.7 128.5 27.9 3.7 75.9 4.9 85.2 2.1 6-1.8 10.7-6.5 12.3-12.4.7-2.7 1-31.3.8-89.3l-.3-85.3-2.4-4.8c-3.1-6.4-6.7-8.9-22.6-15.8-59.4-25.5-93.7-56.9-114.2-104.5-14-32.5-21.3-71-24.3-126.9-.6-12.2-1-184.4-1-479.3 0-413.2-.2-460.6-1.5-464-1.9-4.4-4.9-7.8-9-10-2.7-1.6-12.9-1.7-116-1.9-62.1-.1-113.4 0-114 .2zM501.1 377c-54.8 3.6-107.4 15.4-158.6 35.6-19 7.5-58.8 27.2-76.5 37.9-40.9 24.7-71.3 48.6-106.5 83.9-28.6 28.7-48.1 52.5-69 84.1-70.7 107-101 235-87 367.4 12 113.7 53.1 211.2 123.4 293.1 20 23.3 52.4 53.4 78.1 72.6 118.6 88.8 278.8 125.1 426.5 96.8 71.4-13.7 141.7-45.5 204-92.3 22.3-16.7 55.2-45.9 70.5-62.5l4.3-4.7 16.1 15.9c8.9 8.7 20.6 19.7 26.1 24.4 63.5 54.4 134.2 84.1 220 92.3 23.2 2.2 70.5 3.2 77.4 1.5 7.4-1.8 12.5-6.9 14.1-14.2.8-3.8 1-27.5.8-86.3l-.3-81-2.9-5.2c-3.6-6.5-7.3-9.1-21.8-15.2-44.1-18.7-74.8-41.4-96-71.2-9.3-13-19.8-34.3-25.7-52.4-7.6-22.9-12.2-47.5-16.3-86.5-.9-8.6-1.3-85.2-1.7-299-.6-279.3-.7-287.6-2.5-291.3-2.5-5-7.1-8.4-13.2-9.7-3.3-.7-40.5-1-115.4-.8-100.8.3-110.8.4-113.5 2-4 2.2-8.1 6.6-9.4 10.1-.7 1.8-1.1 16.2-1.1 40.3 0 20.6-.3 37.4-.6 37.4s-4.9-4-10.2-9c-19.9-18.4-52.5-42.3-75.8-55.3-56.4-31.7-116.8-50.8-180.9-57.1-19.6-2-58.3-2.8-76.4-1.6zm91.4 224c87.6 10.1 162.7 52.4 214.1 120.6 66.7 88.5 82.8 210.3 41.7 314.9-34.2 87.1-103 153-189.9 182-21.2 7.1-42 11.7-66.9 14.7-13.4 1.6-55.2 1.6-69 0-59-7-110.1-26.9-154.9-60.6-69.3-52-113.2-128.9-124.3-217.6-2.3-18.5-2.3-58.6.1-76.5 5.4-41.8 15.3-74.3 33.2-109.5 49.5-97.4 143.7-159.8 254.9-169 13-1 48.2-.5 61 1zM1888.3 377.1c-69.2 3.7-146.1 22.5-240.3 58.7-27.5 10.6-83.7 33.9-112.1 46.6l-5.7 2.5-5.8-4.3c-28.2-20.5-76-41.8-121.4-54-31.1-8.4-52.1-11.5-85.5-12.3-28.6-.7-34.6.1-40 4.8-6.9 6.1-6.6 1.7-6.3 99.4l.3 88 2.4 4.5c3.7 7 8.3 10.5 19.9 15.1 5.8 2.3 16.6 7.3 24 11.1 67.5 34.2 99.6 82.4 112.1 168.3 5.6 38.7 5.4 27.7 6 328 .6 255.2.7 277.2 2.3 280 1.8 3.4 5.1 6.6 8.8 8.6 2.1 1.2 21.8 1.4 114.9 1.7 125.2.3 120 .5 125.9-6.3 1.7-1.9 3.6-5.1 4.1-7.2 1.5-5.1 1.5-537.9.1-565.3-3.7-72-15.9-134.3-37-189.6-3.3-8.6-5.9-15.9-5.7-16.1 1-.9 39.8-14.9 57.8-20.8 81.3-26.6 149.1-38.5 196.4-34.6 31.3 2.6 54.1 8.4 76 19.4 51 25.4 82.4 74.9 95 149.6 6.3 37.3 5.9 13.7 6.5 350.1.5 298 .6 306.6 2.4 310.3 2.4 4.8 6.8 8.2 12.6 9.7 3.2.8 36.7 1 116.5.8l112-.3 4.7-2.7c3.2-1.9 5.2-4.1 6.7-7.1l2.1-4.3v-301c0-188.8-.4-306.3-1-315.4-3.6-53-13.6-104.7-29-150.5-2.7-8.2-5-15.5-5-16.2 0-2 33.8-12.3 69.5-21.2 76-18.8 144.7-25.8 191.8-19.6 90 11.8 141.2 69.3 157.2 176.5 5.1 33.8 4.9 20.4 5.2 343.5.1 165.5.5 302.5.8 304.3.7 3.8 5.4 9.6 9.9 12 2.9 1.6 11.9 1.7 115.5 2 125.2.3 120 .5 125.9-6.3 1.7-1.9 3.6-5.1 4.1-7.2 1.4-5.1 1.5-584.7.1-612.3-7.9-155.7-54.4-269.1-140-340.7-53.5-44.8-119.1-70.3-203.1-79-20.2-2-76.4-2.3-100.9-.4-112.9 8.5-211.6 34.5-321.7 84.7-9 4.1-16.8 7.4-17.4 7.4-.6 0-3.9-2.4-7.2-5.4-29.5-25.6-75-50.8-117.2-64.8-55.5-18.3-121.1-26.3-187.2-22.7zM3224.3 410.9c-5.4 1.4-9.7 4.5-12.3 9.2l-2.5 4.4v985l2.2 4.2c2.7 5 6.4 7.8 12.4 9.3 3.1.8 37.6 1 116.4.8l112-.3 4.2-2.2c2.6-1.5 5.2-3.9 6.8-6.6l2.5-4.4V424.6l-2.1-4.3c-1.5-3-3.5-5.2-6.7-7.1l-4.7-2.7-112.5-.2c-61.9 0-113.9.2-115.7.6z"/></svg>