<?xml version="1.0" encoding="UTF-8"?>
<svg xmlns="http://www.w3.org/2000/svg" xmlns:xlink="http://www.w3.org/1999/xlink" width="368pt" height="448pt" viewBox="0 0 368 448" version="1.1">
<g id="surface1">
<path style=" stroke:none;fill-rule:evenodd;fill:rgb(100%,100%,100%);fill-opacity:1;" d="M 184.070313 441.328125 C 163.625 409.351563 124.964844 381.835938 93.539063 375.886719 C 11.925781 360.441406 -11.765625 264.804688 13.027344 226.46875 C 57.96875 150.988281 48.136719 142.980469 11.34375 108.507813 L 50.101563 48.683594 C 89.984375 65.394531 153.738281 47.421875 184.070313 5.710938 C 214.40625 47.421875 278.160156 65.394531 318.042969 48.683594 L 356.800781 108.507813 C 320.007813 142.980469 310.175781 150.988281 355.117188 226.46875 C 379.910156 264.804688 356.214844 360.441406 274.605469 375.886719 C 243.179688 381.835938 204.519531 409.351563 184.070313 441.328125 "/>
<path style=" stroke:none;fill-rule:evenodd;fill:rgb(92.89856%,10.998535%,14.099121%);fill-opacity:1;" d="M 184.070313 441.328125 C 173.414063 424.660156 157.816406 409.214844 140.867188 397.394531 L 179.269531 291.347656 L 188.875 291.347656 L 225.683594 398.515625 C 209.355469 410.183594 194.394531 425.1875 184.070313 441.328125 Z M 68.171875 367.8125 C 43.199219 356.265625 25.738281 336.167969 15.34375 314.117188 L 108.472656 263.507813 L 130.289063 287.40625 Z M 6.132813 242.859375 C 7.695313 236.710938 9.996094 231.15625 13.027344 226.46875 C 22.71875 210.195313 29.859375 197.066406 34.734375 186.121094 L 100.664063 199.757813 L 100.660156 232.117188 Z M 16.28125 113.140625 C 14.695313 111.648438 13.046875 110.105469 11.34375 108.507813 L 50.101563 48.683594 C 54.308594 50.445313 58.78125 51.820313 63.449219 52.824219 L 130.289063 139.34375 L 108.472656 163.242188 Z M 146.976563 37.871094 C 161.484375 29.769531 174.457031 18.933594 184.070313 5.710938 C 193.378906 18.507813 205.832031 29.070313 219.777344 37.082031 L 188.875 127.046875 L 179.265625 127.042969 Z M 307.089844 52.269531 C 310.894531 51.332031 314.5625 50.140625 318.042969 48.683594 L 356.800781 108.507813 C 354.121094 111.019531 351.582031 113.390625 349.195313 115.660156 L 261.640625 163.242188 L 239.824219 139.34375 Z M 333.625 186.601563 C 338.496094 197.449219 345.566406 210.429688 355.117188 226.46875 C 358.097656 231.082031 360.371094 236.53125 361.933594 242.5625 L 270.015625 232.121094 L 270.015625 199.757813 Z M 353.203125 313.265625 C 343.054688 335.21875 325.933594 355.332031 301.414063 367.128906 L 239.824219 287.40625 L 261.640625 263.507813 L 353.203125 313.265625 "/>
<path style="fill:none;stroke-width:65.4762;stroke-linecap:butt;stroke-linejoin:miter;stroke:rgb(17.999268%,18.798828%,57.299805%);stroke-opacity:1;stroke-miterlimit:2.6131;" d="M 1840.703125 66.71875 C 1636.25 386.484375 1249.648438 661.640625 935.390625 721.132813 C 119.257813 875.585938 -117.65625 1831.953125 130.273438 2215.3125 C 579.6875 2970.117188 481.367188 3050.195313 113.4375 3394.921875 L 501.015625 3993.164063 C 899.84375 3826.054688 1537.382813 4005.78125 1840.703125 4422.890625 C 2144.0625 4005.78125 2781.601563 3826.054688 3180.429688 3993.164063 L 3568.007813 3394.921875 C 3200.078125 3050.195313 3101.757813 2970.117188 3551.171875 2215.3125 C 3799.101563 1831.953125 3562.148438 875.585938 2746.054688 721.132813 C 2431.796875 661.640625 2045.195313 386.484375 1840.703125 66.71875 Z M 1840.703125 66.71875 " transform="matrix(0.1,0,0,-0.1,0,448)"/>
<path style=" stroke:none;fill-rule:evenodd;fill:rgb(17.999268%,18.798828%,57.299805%);fill-opacity:1;" d="M 181.542969 102.609375 C 243.265625 102.609375 293.605469 152.949219 293.605469 214.671875 C 293.605469 276.394531 243.265625 326.734375 181.542969 326.734375 C 119.820313 326.734375 69.480469 276.394531 69.480469 214.671875 C 69.480469 152.949219 119.820313 102.609375 181.542969 102.609375 "/>
<path style=" stroke:none;fill-rule:nonzero;fill:rgb(100%,100%,100%);fill-opacity:1;" d="M 116.449219 186.261719 L 116.449219 165.855469 C 105.984375 178.285156 100.417969 193.222656 98.761719 209.578125 L 128.703125 209.578125 C 128.703125 240.003906 128.703125 270.425781 128.703125 300.847656 C 109.308594 289.03125 90.960938 268.457031 84.230469 240.355469 L 96.96875 237.335938 C 100.296875 251.238281 107.574219 262.203125 115.609375 271.195313 L 115.609375 222.675781 L 83.191406 222.675781 C 83.332031 183.554688 105.644531 147.898438 129.542969 134.78125 L 129.542969 186.261719 L 116.449219 186.261719 "/>
<path style=" stroke:none;fill-rule:nonzero;fill:rgb(100%,100%,100%);fill-opacity:1;" d="M 259.527344 187.269531 L 259.523438 187.214844 L 259.519531 187.214844 C 259.09375 182.746094 255.960938 177.796875 253.640625 174.121094 L 253.640625 261.910156 C 257.054688 257.425781 258.691406 253.507813 259.476563 247.308594 L 272.570313 247.207031 C 270.246094 268.527344 254.023438 282.597656 240.546875 294.164063 L 240.546875 137.84375 C 249.929688 145.496094 269.398438 164.394531 272.519531 186.09375 L 259.527344 187.269531 "/>
<path style=" stroke:none;fill-rule:nonzero;fill:rgb(100%,100%,100%);fill-opacity:1;" d="M 139.585938 305.730469 L 139.585938 130.71875 C 153.929688 122.46875 167.5625 118.417969 184.707031 118.890625 L 184.707031 316.675781 C 180.34375 316.675781 175.976563 316.675781 171.613281 316.675781 L 171.613281 221.21875 L 152.679688 221.21875 L 152.679688 312.039063 C 147.890625 309.9375 143.246094 307.832031 139.585938 305.730469 Z M 152.679688 138.800781 L 152.679688 208.125 L 171.613281 208.125 L 171.613281 132.558594 C 164.960938 133.398438 158.609375 135.742188 152.679688 138.800781 "/>
<path style=" stroke:none;fill-rule:nonzero;fill:rgb(100%,100%,100%);fill-opacity:1;" d="M 209.890625 136.660156 L 209.890625 208.738281 L 231.578125 208.738281 L 231.578125 221.835938 L 209.890625 221.835938 L 209.890625 298.253906 C 215.40625 295.34375 220.722656 291.539063 225.84375 286.839844 L 234.691406 296.875 C 222.8125 307.777344 210.023438 313.289063 196.796875 317.28125 L 196.796875 119.261719 C 206.804688 120.488281 226.203125 128.097656 235.121094 135.035156 C 234.515625 135.820313 227.117188 145.371094 227.097656 145.359375 C 221.828125 141.476563 216.03125 138.839844 209.890625 136.660156 "/>
</g>
</svg>
